<?xml version="1.0" encoding="utf-8"?>
<!-- Generator: Adobe Illustrator 25.2.1, SVG Export Plug-In . SVG Version: 6.00 Build 0)  -->
<svg version="1.1" id="Layer_1" xmlns="http://www.w3.org/2000/svg" xmlns:xlink="http://www.w3.org/1999/xlink" x="0px" y="0px"
	 viewBox="0 0 286.3 184.3" style="enable-background:new 0 0 286.3 184.3;" xml:space="preserve">
<style type="text/css">
	.st0{fill:#FFFFFF;}
</style>
<g>
	<path id="XMLID_14_" class="st0" d="M61.1,3.3c-40.4,2.8-54,45.8-24.3,61.4c0,0,13.9,6.9,28.4-1.2c11.6-6.5,17.5-19.9,10-32
		c37.9,13.8,55.7,63,33,95.8c-49-33.6-95-19.3-105.1,4.1c-10.6,24.6,26.6,38.4,59.5,34.2c13-1.7,29.7-7.7,44.2-18.6
		c23.2,13.6,27.2,34.2,27.2,34.2s1-32.6,0-40.2c-1-7.6-5-10-10.3-8.6c-0.7,0.2-1.3,0.3-1.9,0.4c11-13.1,18.7-30.4,19.1-52.2
		C141.9,29.3,96.2,0.8,61.1,3.3 M59.3,59c-9.3,4.3-19.4,2.3-22.6-4.5c-3.2-6.9,1.7-15.9,10.9-20.3c9.2-4.4,19.4-2.3,22.6,4.5
		C73.4,45.6,68.6,54.7,59.3,59 M25.6,155.6c-9-3-27.5-16.1-6.6-24.2c21.8-8.6,48.8-1.4,76.4,10.1C67,166.3,33.5,158.2,25.6,155.6"/>
	<path id="XMLID_10_" class="st0" d="M145.5,80.5c0.5,21.9,8.2,39.1,19.1,52.2c-0.6-0.1-1.2-0.2-1.9-0.4c-5.3-1.3-9.3,1-10.3,8.6
		c-1,7.6,0,40.2,0,40.2s4-20.7,27.2-34.2c14.6,11,31.2,16.9,44.2,18.6c32.9,4.2,70.1-9.6,59.5-34.2c-10.1-23.3-56.1-37.7-105.1-4.1
		c-22.7-32.8-4.9-82,33-95.8c-7.6,12.1-1.6,25.5,10,32c14.5,8.1,28.4,1.2,28.4,1.2c29.6-15.5,16-58.5-24.3-61.4
		C190.1,0.8,144.4,29.3,145.5,80.5 M216.1,38.7c3.2-6.9,13.3-8.9,22.6-4.5c9.2,4.4,14.1,13.4,10.9,20.3c-3.2,6.8-13.3,8.9-22.6,4.5
		C217.7,54.7,212.9,45.6,216.1,38.7 M190.9,141.5c27.5-11.5,54.6-18.7,76.4-10.1c20.9,8.2,2.3,21.2-6.6,24.2
		C252.8,158.2,219.3,166.2,190.9,141.5"/>
</g>
</svg>
